# xmcd
#
# Track frame offsets: 
#        150
#        11082
#        23203
#        33396
#        45909
#        57724
#        68590
#        77908
#        89182
#        99671
#        112747
#
# Disc length: 1651 seconds
#
# Revision: 0
# Processed by: cddbd v1.5.2PL0 Copyright (c) Steve Scherf et al.
# Submitted via: ExactAudioCopy v1.1
#
DISCID=8a06710b
DTITLE=The Exciters - The Exciters
DYEAR=1966
DGENRE=Soul
TTITLE0=I Want You To Be My Boy
TTITLE1=That's How Love Starts
TTITLE2=Tonight, Tonight
TTITLE3=Are You Satisfied
TTITLE4=There They Go
TTITLE5=Run Mascara
TTITLE6=Talkin' Bout My Baby
TTITLE7=I Knew You World
TTITLE8=Just Not Ready
TTITLE9=My Father
TTITLE10=Something To Shout About
EXTD=
EXTT0=
EXTT1=
EXTT2=
EXTT3=
EXTT4=
EXTT5=
EXTT6=
EXTT7=
EXTT8=
EXTT9=
EXTT10=
PLAYORDER=
